TITLE ""
FILE "P1Q_t_1578-1587.mp3" MP3
  TRACK 01 AUDIO
    TITLE "P1Q_t_1578-1587_01"
    INDEX 01 00:00:00
  TRACK 02 AUDIO
    TITLE "P1Q_t_1578-1587_02"
    INDEX 01 00:00:10
  TRACK 03 AUDIO
    TITLE "P1Q_t_1578-1587_03"
    INDEX 01 00:01:39
  TRACK 04 AUDIO
    TITLE "P1Q_t_1578-1587_04"
    INDEX 01 00:01:61
  TRACK 05 AUDIO
    TITLE "P1Q_t_1578-1587_05"
    INDEX 01 00:04:45
  TRACK 06 AUDIO
    TITLE "P1Q_t_1578-1587_06"
    INDEX 01 00:04:65
  TRACK 07 AUDIO
    TITLE "P1Q_t_1578-1587_07"
    INDEX 01 00:09:52
  TRACK 08 AUDIO
    TITLE "P1Q_t_1578-1587_08"
    INDEX 01 00:10:24
  TRACK 09 AUDIO
    TITLE "P1Q_t_1578-1587_09"
    INDEX 01 00:11:36
  TRACK 10 AUDIO
    TITLE "P1Q_t_1578-1587_10"
    INDEX 01 00:11:55
  TRACK 11 AUDIO
    TITLE "P1Q_t_1578-1587_11"
    INDEX 01 00:14:24
  TRACK 12 AUDIO
    TITLE "P1Q_t_1578-1587_12"
    INDEX 01 00:14:44
  TRACK 13 AUDIO
    TITLE "P1Q_t_1578-1587_13"
    INDEX 01 00:19:19
  TRACK 14 AUDIO
    TITLE "P1Q_t_1578-1587_14"
    INDEX 01 00:19:66
  TRACK 15 AUDIO
    TITLE "P1Q_t_1578-1587_15"
    INDEX 01 00:20:72
  TRACK 16 AUDIO
    TITLE "P1Q_t_1578-1587_16"
    INDEX 01 00:21:18
  TRACK 17 AUDIO
    TITLE "P1Q_t_1578-1587_17"
    INDEX 01 00:25:12
  TRACK 18 AUDIO
    TITLE "P1Q_t_1578-1587_18"
    INDEX 01 00:25:32
  TRACK 19 AUDIO
    TITLE "P1Q_t_1578-1587_19"
    INDEX 01 00:30:09
  TRACK 20 AUDIO
    TITLE "P1Q_t_1578-1587_20"
    INDEX 01 00:30:54
  TRACK 21 AUDIO
    TITLE "P1Q_t_1578-1587_21"
    INDEX 01 00:32:01
  TRACK 22 AUDIO
    TITLE "P1Q_t_1578-1587_22"
    INDEX 01 00:32:20
  TRACK 23 AUDIO
    TITLE "P1Q_t_1578-1587_23"
    INDEX 01 00:33:35
  TRACK 24 AUDIO
    TITLE "P1Q_t_1578-1587_24"
    INDEX 01 00:33:57
  TRACK 25 AUDIO
    TITLE "P1Q_t_1578-1587_25"
    INDEX 01 00:37:08
  TRACK 26 AUDIO
    TITLE "P1Q_t_1578-1587_26"
    INDEX 01 00:37:53
  TRACK 27 AUDIO
    TITLE "P1Q_t_1578-1587_27"
    INDEX 01 00:38:66
  TRACK 28 AUDIO
    TITLE "P1Q_t_1578-1587_28"
    INDEX 01 00:39:14
  TRACK 29 AUDIO
    TITLE "P1Q_t_1578-1587_29"
    INDEX 01 00:42:07
  TRACK 30 AUDIO
    TITLE "P1Q_t_1578-1587_30"
    INDEX 01 00:42:28
  TRACK 31 AUDIO
    TITLE "P1Q_t_1578-1587_31"
    INDEX 01 00:46:06
  TRACK 32 AUDIO
    TITLE "P1Q_t_1578-1587_32"
    INDEX 01 00:46:52
  TRACK 33 AUDIO
    TITLE "P1Q_t_1578-1587_33"
    INDEX 01 00:47:73
  TRACK 34 AUDIO
    TITLE "P1Q_t_1578-1587_34"
    INDEX 01 00:48:19
  TRACK 35 AUDIO
    TITLE "P1Q_t_1578-1587_35"
    INDEX 01 00:49:52
  TRACK 36 AUDIO
    TITLE "P1Q_t_1578-1587_36"
    INDEX 01 00:49:71
  TRACK 37 AUDIO
    TITLE "P1Q_t_1578-1587_37"
    INDEX 01 00:55:11
  TRACK 38 AUDIO
    TITLE "P1Q_t_1578-1587_38"
    INDEX 01 00:55:56
  TRACK 39 AUDIO
    TITLE "P1Q_t_1578-1587_39"
    INDEX 01 00:56:70
  TRACK 40 AUDIO
    TITLE "P1Q_t_1578-1587_40"
    INDEX 01 00:57:16
  TRACK 41 AUDIO
    TITLE "P1Q_t_1578-1587_41"
    INDEX 01 00:58:31
  TRACK 42 AUDIO
    TITLE "P1Q_t_1578-1587_42"
    INDEX 01 00:58:51
  TRACK 43 AUDIO
    TITLE "P1Q_t_1578-1587_43"
    INDEX 01 01:02:54
  TRACK 44 AUDIO
    TITLE "P1Q_t_1578-1587_44"
    INDEX 01 01:03:25
  TRACK 45 AUDIO
    TITLE "P1Q_t_1578-1587_45"
    INDEX 01 01:04:38
  TRACK 46 AUDIO
    TITLE "P1Q_t_1578-1587_46"
    INDEX 01 01:04:59
  TRACK 47 AUDIO
    TITLE "P1Q_t_1578-1587_47"
    INDEX 01 01:07:03
  TRACK 48 AUDIO
    TITLE "P1Q_t_1578-1587_48"
    INDEX 01 01:07:24
  TRACK 49 AUDIO
    TITLE "P1Q_t_1578-1587_49"
    INDEX 01 01:12:31
  TRACK 50 AUDIO
    TITLE "P1Q_t_1578-1587_50"
    INDEX 01 01:13:01
  TRACK 51 AUDIO
    TITLE "P1Q_t_1578-1587_51"
    INDEX 01 01:14:38
  TRACK 52 AUDIO
    TITLE "P1Q_t_1578-1587_52"
    INDEX 01 01:14:58
  TRACK 53 AUDIO
    TITLE "P1Q_t_1578-1587_53"
    INDEX 01 01:17:74
  TRACK 54 AUDIO
    TITLE "P1Q_t_1578-1587_54"
    INDEX 01 01:18:18
  TRACK 55 AUDIO
    TITLE "P1Q_t_1578-1587_55"
    INDEX 01 01:23:68
  TRACK 56 AUDIO
    TITLE "P1Q_t_1578-1587_56"
    INDEX 01 01:24:40
  TRACK 57 AUDIO
    TITLE "P1Q_t_1578-1587_57"
    INDEX 01 01:25:61
  TRACK 58 AUDIO
    TITLE "P1Q_t_1578-1587_58"
    INDEX 01 01:26:08
  TRACK 59 AUDIO
    TITLE "P1Q_t_1578-1587_59"
    INDEX 01 01:28:40
  TRACK 60 AUDIO
    TITLE "P1Q_t_1578-1587_60"
    INDEX 01 01:28:60
  TRACK 61 AUDIO
    TITLE "P1Q_t_1578-1587_61"
    INDEX 01 01:33:43
